<svg width="630" height="158" viewBox="0 0 630 158" fill="none" xmlns="http://www.w3.org/2000/svg">
<path fill-rule="evenodd" clip-rule="evenodd" d="M68.3167 0.404751C64.791 0.951238 57.9805 2.61121 55.7758 3.46119C54.9909 3.76415 52.7777 5.97534 50.8572 8.37484L47.366 12.7378L47.7179 20.9414C48.0275 28.1593 47.9687 29.1829 47.2289 29.4653C46.145 29.8788 46.2223 30.0628 44.5034 22.9943C42.4897 14.7128 42.9787 15.0363 38.0544 18.7244C22.2694 30.5462 13.2287 46.6452 10.6086 67.6011L10.2593 70.3935L8.6801 68.2586C6.76751 65.6744 7.22104 65.6713 3.72926 68.2912L0.841309 70.4582V74.8658V79.2735H8.16887H15.4959L15.8256 85.7346C18.3749 135.722 72.9336 163.295 114.69 135.698C116.691 134.376 118.328 133.147 118.328 132.968C118.328 132.788 115.846 130.183 112.812 127.178L107.297 121.715L104.742 123.342C90.4295 132.457 72.0852 133.171 56.8755 125.205C30.974 111.639 23.7507 78.0701 41.7293 54.8157C54.8597 37.832 79.6022 31.9216 99.1124 41.1083C124.451 53.039 134.055 83.3445 120.107 107.358L117.695 111.512L123.299 117.081L128.903 122.651L129.833 121.408C138.038 110.453 143.909 91.9353 142.475 81.5383L142.163 79.2735H149.826H157.49V74.9037V70.5339L154.447 68.3101L151.404 66.0858L149.898 67.9456C148.094 70.1726 147.435 69.9454 147.435 67.0962C147.435 58.4549 141.903 43.4699 135.263 34.1218C130.252 27.0669 116.828 14.6986 115.635 16.0362C115.447 16.2471 114.633 19.1415 113.827 22.4683C112.041 29.8367 111.94 30.0613 110.83 29.1797C110.095 28.5959 110.058 27.5934 110.512 20.7557L111.029 12.9945L107.387 8.41271C103.41 3.40754 102.993 3.18084 93.9837 1.10956C89.8304 0.154913 72.9251 -0.309522 68.3167 0.404751ZM307.788 80.0625V125.559H316.785H325.781V121.309V117.059L328.713 119.656C340.646 130.227 360.947 128.573 371.085 116.203C384.016 100.426 381.763 73.806 366.531 62.4024C355.114 53.8553 338.461 54.3581 328.687 63.5453L325.781 66.2767V50.4212V34.5657H316.785H307.788V80.0625ZM203.532 71.7984V103.771L202.341 106.088C200.715 109.249 199.028 110.339 195.278 110.65C189.496 111.128 185.566 107.825 184.73 101.785L184.381 99.2605H175.698H167.016V101.78C167.016 112.289 174.243 121.932 184.477 125.075C198.022 129.235 212.687 124.469 218.248 114.098C221.464 108.101 221.509 107.526 221.517 72.0414L221.525 39.8255H212.529H203.532V71.7984ZM261.746 56.4299C254.39 57.6965 251.209 58.8347 246.005 62.0615C228.445 72.9502 225.673 101.908 240.763 116.836C257.245 133.142 288.124 128.468 297.902 108.187C307.972 87.2988 297.654 63.0772 276.299 57.474C273.119 56.6393 264.232 56.0018 261.746 56.4299ZM273.763 73.5535C280.51 76.7494 283.159 81.8418 283.171 91.6339C283.18 98.8303 282.167 101.902 278.43 106.014C272.178 112.892 259.769 113.029 253.813 106.288C250.204 102.201 249.309 99.2921 249.309 91.6339C249.309 85.2449 249.407 84.589 250.792 81.6404C255.088 72.499 264.525 69.1764 273.763 73.5535ZM351.47 73.6103C359.488 77.7019 363.213 87.8548 360.436 98.0503C357.217 109.87 343.851 114.937 333.632 108.209C323.909 101.808 322.971 84.0104 331.943 76.1613C337.076 71.6705 345.509 70.5692 351.47 73.6103Z" fill="black"/>
<path fill-rule="evenodd" clip-rule="evenodd" d="M71.3843 51.4844C45.9152 58.3846 37.6139 88.7091 56.1693 107.066C71.2166 121.952 97.0244 118.532 107.865 100.217C118.574 82.1239 109.539 58.6529 89.3777 52.1887C84.8238 50.7285 75.518 50.3646 71.3843 51.4844ZM103.524 80.1221C102.697 71.0637 94.9001 62.3731 85.3901 59.9115C83.677 59.4681 81.6109 59.1052 80.7991 59.1052H79.3226V63.7553V68.4055L82.1656 69.0377C88.5368 70.4547 94.1407 76.5507 94.1407 82.0634C94.1407 83.2711 94.2529 83.3 98.9772 83.3H103.814L103.524 80.1221Z" fill="#00AEEF"/>
<path d="M384.329 68.8207C381.213 53.7441 391.501 41.2822 408.806 39.1694C426.902 36.9598 441.161 44.8399 444.788 59.0554C446.084 64.1348 446.486 63.9265 435.702 63.7608L426.354 63.6172L425.672 61.3171C424.211 56.3993 419.927 53.6926 413.537 53.651C406.15 53.6032 402.448 56.7622 402.431 63.1275C402.416 69.2456 405.46 71.3232 422.343 76.7203C438.591 81.9143 444.484 86.9862 446.195 97.2527C449.706 118.313 425.407 133.109 401.415 124.519C391.115 120.831 383.636 111.767 383.636 102.97V101.224H393.162C402.684 101.224 402.688 101.225 402.7 102.408C402.753 107.826 408.433 112.27 415.306 112.27C423.22 112.27 428.091 108.463 428.091 102.276C428.091 95.9031 424.743 93.4836 409.576 88.8945C392.038 83.5879 386.464 79.1566 384.329 68.8207Z" fill="#00AEEF"/>
<path d="M525.996 49.4937C525.996 45.0635 526.155 41.2807 526.349 41.0882C526.543 40.8951 530.591 40.7373 535.346 40.7373H543.989V49.1529V57.5685H551.663H559.337V64.9321V72.2958H551.663H543.989V89.4068C543.989 111.896 543.674 111.218 554.123 111.218H559.337V118.634V126.049L550.208 125.822C536.916 125.49 532.321 123.483 528.782 116.458C526.427 111.784 525.996 107.417 525.996 88.2202V72.2958H522.05H518.104L517.949 68.6492L517.793 65.0026L498.151 111.385L478.51 157.767L469.176 157.91C464.044 157.989 459.844 157.916 459.844 157.749C459.844 157.581 463.059 150.099 466.988 141.121C470.918 132.144 474.133 124.503 474.133 124.142C474.133 123.781 468.06 108.836 460.637 90.9316C453.215 73.0269 447.142 58.1955 447.142 57.973C447.142 57.7505 451.523 57.5685 456.876 57.5685C465.658 57.5685 466.645 57.6584 466.969 58.489C467.165 58.9955 471.026 69.3503 475.547 81.5003C480.069 93.6503 483.926 103.761 484.119 103.968C484.312 104.176 488.418 93.8796 493.243 81.0885L502.015 57.8315L514.005 57.69L525.996 57.5485V49.4937Z" fill="#00AEEF"/>
<path fill-rule="evenodd" clip-rule="evenodd" d="M588.179 57.2592C570.788 60.6376 561.194 72.9995 561.198 92.0198C561.201 103.592 563.819 110.425 570.974 117.533C588.171 134.618 620.647 127.719 627.321 105.564L627.677 104.38H618.129H608.581L607.788 105.906C605.702 109.914 600.603 112.464 594.782 112.41C587.464 112.341 582.134 108.502 579.777 101.6C579.236 100.017 578.615 98.9751 578.888 98.2916C579.489 96.7884 584.419 97.0165 604.056 97.0165H629.193V91.052C629.193 73.9642 620.325 61.7253 605.114 57.8215C600.584 56.6586 592.629 56.3945 588.179 57.2592ZM610.887 83.4727C609.938 78.2861 606.492 74.2308 601.433 72.3499C591.514 68.6613 581.644 73.8416 579.24 83.9987L578.898 85.4451H595.073H611.248L610.887 83.4727Z" fill="#00AEEF"/>
</svg>
